HIERARCHY
ROOT Hips
{
	OFFSET -338.882294 -555.210510 88.995560
	CHANNELS 6 Xposition Yposition Zposition Zrotation Yrotation Xrotation
	JOINT Spine
	{
		OFFSET 0.000000 2.080078 8.814247
		CHANNELS 6 Xposition Yposition Zposition Zrotation Yrotation Xrotation
		JOINT Spine1
		{
			OFFSET 0.000000 0.000000 8.844139
			CHANNELS 6 Xposition Yposition Zposition Zrotation Yrotation Xrotation
			JOINT Spine2
			{
				OFFSET 0.000000 0.000000 11.682266
				CHANNELS 6 Xposition Yposition Zposition Zrotation Yrotation Xrotation
				JOINT Spine3
				{
					OFFSET 0.000000 0.000000 11.746704
					CHANNELS 6 Xposition Yposition Zposition Zrotation Yrotation Xrotation
					JOINT Neck
					{
						OFFSET 0.000000 0.000000 17.658264
						CHANNELS 6 Xposition Yposition Zposition Zrotation Yrotation Xrotation
						JOINT Neck1
						{
							OFFSET 0.000000 0.000000 5.101517
							CHANNELS 6 Xposition Yposition Zposition Zrotation Yrotation Xrotation
							JOINT Head
							{
								OFFSET 0.000000 0.000000 5.101517
								CHANNELS 6 Xposition Yposition Zposition Zrotation Yrotation Xrotation
								JOINT HeadEnd
								{
									OFFSET 0.000000 0.000000 11.655090
									CHANNELS 6 Xposition Yposition Zposition Zrotation Yrotation Xrotation
									End Site
									{
										OFFSET 0.000000 0.000000 0.100006
									}
								}
							}
						}
					}
					JOINT RightShoulder
					{
						OFFSET -2.625397 0.000000 11.175217
						CHANNELS 6 Xposition Yposition Zposition Zrotation Yrotation Xrotation
						JOINT RightArm
						{
							OFFSET 0.000000 0.000000 10.434723
							CHANNELS 6 Xposition Yposition Zposition Zrotation Yrotation Xrotation
							JOINT RightForeArm
							{
								OFFSET 0.000000 0.000000 29.628418
								CHANNELS 6 Xposition Yposition Zposition Zrotation Yrotation Xrotation
								JOINT RightHand
								{
									OFFSET 0.000000 0.000000 22.857605
									CHANNELS 6 Xposition Yposition Zposition Zrotation Yrotation Xrotation
									JOINT RightHandThumb1
									{
										OFFSET -2.867310 -2.944275 3.959564
										CHANNELS 6 Xposition Yposition Zposition Zrotation Yrotation Xrotation
										JOINT RightHandThumb2
										{
											OFFSET 0.000000 0.000000 3.350403
											CHANNELS 6 Xposition Yposition Zposition Zrotation Yrotation Xrotation
											JOINT RightHandThumb3
											{
												OFFSET 0.000000 0.000000 3.756516
												CHANNELS 6 Xposition Yposition Zposition Zrotation Yrotation Xrotation
												JOINT RightHandThumb4
												{
													OFFSET 0.000000 0.000000 3.147339
													CHANNELS 6 Xposition Yposition Zposition Zrotation Yrotation Xrotation
													End Site
													{
														OFFSET 0.000000 0.000000 0.100006
													}
												}
											}
										}
									}
									JOINT RightHandIndex1
									{
										OFFSET -0.086761 -2.345276 10.030899
										CHANNELS 6 Xposition Yposition Zposition Zrotation Yrotation Xrotation
										JOINT RightHandIndex2
										{
											OFFSET 0.000000 0.000000 4.061096
											CHANNELS 6 Xposition Yposition Zposition Zrotation Yrotation Xrotation
											JOINT RightHandIndex3
											{
												OFFSET 0.000000 0.000000 3.248871
												CHANNELS 6 Xposition Yposition Zposition Zrotation Yrotation Xrotation
												JOINT RightHandIndex4
												{
													OFFSET 0.000000 0.000000 2.639709
													CHANNELS 6 Xposition Yposition Zposition Zrotation Yrotation Xrotation
													End Site
													{
														OFFSET 0.000000 0.000000 0.100006
													}
												}
											}
										}
									}
									JOINT RightHandMiddle1
									{
										OFFSET 0.104095 -0.006775 9.502945
										CHANNELS 6 Xposition Yposition Zposition Zrotation Yrotation Xrotation
										JOINT RightHandMiddle2
										{
											OFFSET 0.000000 0.000000 4.568726
											CHANNELS 6 Xposition Yposition Zposition Zrotation Yrotation Xrotation
											JOINT RightHandMiddle3
											{
												OFFSET 0.000000 0.000000 3.654984
												CHANNELS 6 Xposition Yposition Zposition Zrotation Yrotation Xrotation
												JOINT RightHandMiddle4
												{
													OFFSET 0.000000 0.000000 2.741241
													CHANNELS 6 Xposition Yposition Zposition Zrotation Yrotation Xrotation
													End Site
													{
														OFFSET 0.000000 0.000000 0.100006
													}
												}
											}
										}
									}
									JOINT RightHandRing1
									{
										OFFSET 0.086761 2.267456 8.921707
										CHANNELS 6 Xposition Yposition Zposition Zrotation Yrotation Xrotation
										JOINT RightHandRing2
										{
											OFFSET 0.000000 0.000000 4.061096
											CHANNELS 6 Xposition Yposition Zposition Zrotation Yrotation Xrotation
											JOINT RightHandRing3
											{
												OFFSET 0.000000 0.000000 3.654984
												CHANNELS 6 Xposition Yposition Zposition Zrotation Yrotation Xrotation
												JOINT RightHandRing4
												{
													OFFSET 0.000000 0.000000 2.741241
													CHANNELS 6 Xposition Yposition Zposition Zrotation Yrotation Xrotation
													End Site
													{
														OFFSET 0.000000 0.000000 0.100006
													}
												}
											}
										}
									}
									JOINT RightHandPinky1
									{
										OFFSET -0.173492 4.467224 7.976990
										CHANNELS 6 Xposition Yposition Zposition Zrotation Yrotation Xrotation
										JOINT RightHandPinky2
										{
											OFFSET 0.000000 0.000000 3.350403
											CHANNELS 6 Xposition Yposition Zposition Zrotation Yrotation Xrotation
											JOINT RightHandPinky3
											{
												OFFSET 0.000000 0.000000 2.842758
												CHANNELS 6 Xposition Yposition Zposition Zrotation Yrotation Xrotation
												JOINT RightHandPinky4
												{
													OFFSET 0.000000 0.000000 2.639709
													CHANNELS 6 Xposition Yposition Zposition Zrotation Yrotation Xrotation
													End Site
													{
														OFFSET 0.000000 0.000000 0.100006
													}
												}
											}
										}
									}
									JOINT RightForeArmEnd
									{
										OFFSET 0.000000 0.000000 0.000000
										CHANNELS 6 Xposition Yposition Zposition Zrotation Yrotation Xrotation
										End Site
										{
											OFFSET 0.000000 0.000000 0.100006
										}
									}
								}
								JOINT RightArmEnd
								{
									OFFSET 0.000000 0.000000 0.000000
									CHANNELS 6 Xposition Yposition Zposition Zrotation Yrotation Xrotation
									End Site
									{
										OFFSET 0.000000 0.000000 0.100006
									}
								}
							}
						}
					}
					JOINT LeftShoulder
					{
						OFFSET 2.625397 0.000000 11.175217
						CHANNELS 6 Xposition Yposition Zposition Zrotation Yrotation Xrotation
						JOINT LeftArm
						{
							OFFSET 0.000000 0.000000 10.813629
							CHANNELS 6 Xposition Yposition Zposition Zrotation Yrotation Xrotation
							JOINT LeftForeArm
							{
								OFFSET 0.000000 0.000000 28.724777
								CHANNELS 6 Xposition Yposition Zposition Zrotation Yrotation Xrotation
								JOINT LeftHand
								{
									OFFSET 0.644379 0.328857 25.716171
									CHANNELS 6 Xposition Yposition Zposition Zrotation Yrotation Xrotation
									JOINT LeftHandThumb1
									{
										OFFSET 2.867310 -2.944275 3.959564
										CHANNELS 6 Xposition Yposition Zposition Zrotation Yrotation Xrotation
										JOINT LeftHandThumb2
										{
											OFFSET 0.000000 0.000000 3.350403
											CHANNELS 6 Xposition Yposition Zposition Zrotation Yrotation Xrotation
											JOINT LeftHandThumb3
											{
												OFFSET 0.000000 0.000000 3.756516
												CHANNELS 6 Xposition Yposition Zposition Zrotation Yrotation Xrotation
												JOINT LeftHandThumb4
												{
													OFFSET 0.000000 0.000000 3.100006
													CHANNELS 6 Xposition Yposition Zposition Zrotation Yrotation Xrotation
													End Site
													{
														OFFSET 0.000000 0.000000 0.100006
													}
												}
											}
										}
									}
									JOINT LeftHandIndex1
									{
										OFFSET 0.086761 -2.345276 10.030899
										CHANNELS 6 Xposition Yposition Zposition Zrotation Yrotation Xrotation
										JOINT LeftHandIndex2
										{
											OFFSET 0.000000 0.000000 4.061096
											CHANNELS 6 Xposition Yposition Zposition Zrotation Yrotation Xrotation
											JOINT LeftHandIndex3
											{
												OFFSET 0.000000 0.000000 3.248871
												CHANNELS 6 Xposition Yposition Zposition Zrotation Yrotation Xrotation
												JOINT LeftHandIndex4
												{
													OFFSET 0.000000 0.000000 2.639709
													CHANNELS 6 Xposition Yposition Zposition Zrotation Yrotation Xrotation
													End Site
													{
														OFFSET 0.000000 0.000000 0.100006
													}
												}
											}
										}
									}
									JOINT LeftHandMiddle1
									{
										OFFSET -0.104095 -0.006775 9.502945
										CHANNELS 6 Xposition Yposition Zposition Zrotation Yrotation Xrotation
										JOINT LeftHandMiddle2
										{
											OFFSET 0.000000 0.000000 4.568726
											CHANNELS 6 Xposition Yposition Zposition Zrotation Yrotation Xrotation
											JOINT LeftHandMiddle3
											{
												OFFSET 0.000000 0.000000 3.654984
												CHANNELS 6 Xposition Yposition Zposition Zrotation Yrotation Xrotation
												JOINT LeftHandMiddle4
												{
													OFFSET 0.000000 0.000000 2.741241
													CHANNELS 6 Xposition Yposition Zposition Zrotation Yrotation Xrotation
													End Site
													{
														OFFSET 0.000000 0.000000 0.100006
													}
												}
											}
										}
									}
									JOINT LeftHandRing1
									{
										OFFSET -0.086761 2.267456 8.921707
										CHANNELS 6 Xposition Yposition Zposition Zrotation Yrotation Xrotation
										JOINT LeftHandRing2
										{
											OFFSET 0.000000 0.000000 4.061096
											CHANNELS 6 Xposition Yposition Zposition Zrotation Yrotation Xrotation
											JOINT LeftHandRing3
											{
												OFFSET 0.000000 0.000000 3.654984
												CHANNELS 6 Xposition Yposition Zposition Zrotation Yrotation Xrotation
												JOINT LeftHandRing4
												{
													OFFSET 0.000000 0.000000 2.741241
													CHANNELS 6 Xposition Yposition Zposition Zrotation Yrotation Xrotation
													End Site
													{
														OFFSET 0.000000 0.000000 0.100006
													}
												}
											}
										}
									}
									JOINT LeftHandPinky1
									{
										OFFSET 0.173492 4.467224 7.976990
										CHANNELS 6 Xposition Yposition Zposition Zrotation Yrotation Xrotation
										JOINT LeftHandPinky2
										{
											OFFSET 0.000000 0.000000 3.350403
											CHANNELS 6 Xposition Yposition Zposition Zrotation Yrotation Xrotation
											JOINT LeftHandPinky3
											{
												OFFSET 0.000000 0.000000 2.842758
												CHANNELS 6 Xposition Yposition Zposition Zrotation Yrotation Xrotation
												JOINT LeftHandPinky4
												{
													OFFSET 0.000000 0.000000 2.639709
													CHANNELS 6 Xposition Yposition Zposition Zrotation Yrotation Xrotation
													End Site
													{
														OFFSET 0.000000 0.000000 0.100006
													}
												}
											}
										}
									}
									JOINT LeftForeArmEnd
									{
										OFFSET 0.000000 0.000000 0.000000
										CHANNELS 6 Xposition Yposition Zposition Zrotation Yrotation Xrotation
										End Site
										{
											OFFSET 0.000000 0.000000 0.100006
										}
									}
								}
								JOINT LeftArmEnd
								{
									OFFSET 0.000000 0.000000 0.000000
									CHANNELS 6 Xposition Yposition Zposition Zrotation Yrotation Xrotation
									End Site
									{
										OFFSET 0.000000 0.000000 0.100006
									}
								}
							}
						}
					}
				}
			}
		}
	}
	JOINT RightUpLeg
	{
		OFFSET -11.289948 0.000000 0.000000
		CHANNELS 6 Xposition Yposition Zposition Zrotation Yrotation Xrotation
		JOINT RightLeg
		{
			OFFSET 0.000000 0.000000 -38.200321
			CHANNELS 6 Xposition Yposition Zposition Zrotation Yrotation Xrotation
			JOINT RightFoot
			{
				OFFSET 0.000000 0.000000 -39.900856
				CHANNELS 6 Xposition Yposition Zposition Zrotation Yrotation Xrotation
				JOINT RightToeBase
				{
					OFFSET 0.000000 -15.261658 0.000001
					CHANNELS 6 Xposition Yposition Zposition Zrotation Yrotation Xrotation
					JOINT RightToeBaseEnd
					{
						OFFSET 0.000000 -7.370728 0.000001
						CHANNELS 6 Xposition Yposition Zposition Zrotation Yrotation Xrotation
						End Site
						{
							OFFSET 0.000000 0.000000 0.100000
						}
					}
				}
				JOINT RightLegEnd
				{
					OFFSET 0.000000 0.000000 0.000000
					CHANNELS 6 Xposition Yposition Zposition Zrotation Yrotation Xrotation
					End Site
					{
						OFFSET 0.000000 0.000000 0.100000
					}
				}
			}
			JOINT RightUpLegEnd
			{
				OFFSET 0.000000 0.000000 0.000000
				CHANNELS 6 Xposition Yposition Zposition Zrotation Yrotation Xrotation
				End Site
				{
					OFFSET 0.000000 0.000000 0.099998
				}
			}
		}
	}
	JOINT LeftUpLeg
	{
		OFFSET 11.315674 0.000000 0.000000
		CHANNELS 6 Xposition Yposition Zposition Zrotation Yrotation Xrotation
		JOINT LeftLeg
		{
			OFFSET 0.000000 0.000000 -38.200321
			CHANNELS 6 Xposition Yposition Zposition Zrotation Yrotation Xrotation
			JOINT LeftFoot
			{
				OFFSET 0.000000 0.000000 -39.900856
				CHANNELS 6 Xposition Yposition Zposition Zrotation Yrotation Xrotation
				JOINT LeftToeBase
				{
					OFFSET 0.000000 -15.261658 0.000001
					CHANNELS 6 Xposition Yposition Zposition Zrotation Yrotation Xrotation
					JOINT LeftToeBaseEnd
					{
						OFFSET 0.000000 -7.539978 0.000001
						CHANNELS 6 Xposition Yposition Zposition Zrotation Yrotation Xrotation
						End Site
						{
							OFFSET 0.000000 0.000000 0.100000
						}
					}
				}
				JOINT LeftLegEnd
				{
					OFFSET 0.000000 0.000000 0.000000
					CHANNELS 6 Xposition Yposition Zposition Zrotation Yrotation Xrotation
					End Site
					{
						OFFSET 0.000000 0.000000 0.100000
					}
				}
			}
			JOINT LeftUpLegEnd
			{
				OFFSET 0.000000 0.000000 0.000000
				CHANNELS 6 Xposition Yposition Zposition Zrotation Yrotation Xrotation
				End Site
				{
					OFFSET 0.000000 0.000000 0.099998
				}
			}
		}
	}
}
MOTION
Frames: 2
Frame Time: 0.016667
-9.723755 -11.990967 84.668427 36.349795 4.616051 -11.794233 0.000001 2.080057 8.814232 -0.588616 -4.634357 5.219923 0.000007 0.000016 8.844141 0.318419 1.202769 2.386473 -0.000013 -0.000031 11.682261 -2.961038 0.178246 4.995891 -0.000003 -0.000046 11.746705 -0.769846 0.092528 3.476202 0.000004 0.000011 17.658298 -9.522428 -10.063783 8.504345 -0.000002 -0.000020 5.101559 -4.983986 1.371461 -2.279021 -0.000005 0.000023 5.101473 -1.402976 0.494924 -14.259977 0.000007 0.000008 11.655090 -0.000001 -0.000000 -0.000000 -2.625425 -0.000030 11.175210 9.690012 -88.681072 -0.242971 0.000038 -0.000029 10.434738 18.747179 -49.781383 -6.295248 0.000008 -0.000038 29.628416 15.813268 1.725748 110.134246 0.000036 -0.000023 22.857559 6.078928 17.766068 21.513569 -2.867305 -2.944229 3.959534 32.858104 -27.566913 37.131395 -0.000038 0.000015 3.350395 -35.329570 9.952407 -59.417284 -0.000015 0.000015 3.756477 -23.610265 10.970584 -40.645718 -0.000001 -0.000005 3.147347 0.000001 -0.000001 0.000000 -0.086748 -2.345269 10.030937 -113.572447 -69.857904 114.352099 -0.000042 0.000000 4.061073 -12.646346 -67.307423 19.639188 0.000004 -0.000004 3.248856 -13.146373 -67.307416 19.639210 0.000008 0.000008 2.639732 -0.000002 0.000000 -0.000001 0.104084 -0.006764 9.502907 -112.716242 -75.408198 117.465539 0.000010 0.000027 4.568724 -4.180473 -66.946297 7.073566 -0.000023 0.000015 3.654985 -4.680470 -66.946256 7.073569 0.000003 -0.000004 2.741244 0.000001 -0.000001 0.000001 0.086777 2.267460 8.921673 -152.853992 -78.082552 162.156149 -0.000029 -0.000001 4.061115 5.569558 -69.564015 -9.447606 -0.000021 0.000023 3.654984 6.569582 -69.564029 -9.447632 -0.000001 -0.000004 2.741268 0.000001 0.000000 0.000000 -0.173470 4.467255 7.976994 167.176899 -77.468368 -153.907521 -0.000015 -0.000008 3.350395 15.823993 -66.686006 -26.810581 0.000000 0.000000 2.842781 17.824026 -66.685999 -26.810600 0.000000 0.000002 2.639711 0.000000 -0.000001 0.000001 0.000032 -0.000001 -0.000023 -0.000000 0.000000 -0.000001 0.000028 -0.000003 0.000004 -0.000000 0.000001 0.000002 2.625406 -0.000015 11.175206 -10.805154 88.160154 -0.305327 0.000000 -0.000010 10.813637 4.222650 62.851052 12.353744 -0.000042 -0.000008 28.724899 -16.910517 1.640174 113.498374 0.644394 0.328810 25.716187 0.915738 -44.981724 16.539474 2.867302 -2.944321 3.959541 -31.604423 17.443437 51.241524 0.000034 0.000023 3.350403 13.067328 -8.582114 -23.538077 0.000015 -0.000015 3.756546 8.692152 -6.542785 -16.108443 -0.000008 0.000001 3.100007 0.000000 0.000000 -0.000001 0.086763 -2.345229 10.030901 205.489424 -86.349396 -17.768169 -0.000036 -0.000029 4.061097 -179.499994 180.000019 -180.000032 0.000004 -0.000015 3.248874 -179.999991 180.000019 -180.000606 0.000029 -0.000008 2.639731 0.000001 0.000000 -0.000000 -0.104105 -0.006733 9.502945 276.316505 -83.410352 -105.966041 0.000007 -0.000026 4.568732 0.499975 0.000226 -0.000004 0.000003 0.000003 3.654967 0.000007 -0.000000 -0.000011 0.000028 -0.000004 2.741229 -0.000000 -0.000000 0.000001 -0.086742 2.267435 8.921715 139.046054 68.231336 143.572625 0.000008 -0.000028 4.061096 8.561037 74.327389 12.591208 -0.000021 0.000018 3.654976 9.560979 74.327389 12.591155 0.000021 0.000008 2.741244 -0.000001 0.000001 0.000002 0.173492 4.467226 7.976982 126.726005 61.794627 139.443913 -0.000008 -0.000038 3.350410 27.223870 72.814147 38.938823 -0.000023 -0.000011 2.842735 29.223794 72.814099 38.938710 -0.000033 0.000008 2.639717 -0.000001 -0.000000 -0.000003 -0.000000 -0.000033 0.000009 -0.000003 0.000000 -0.000001 0.000001 -0.000002 -0.000008 0.000002 0.000004 -0.000000 -11.290007 0.000011 -0.000010 -17.003227 1.045742 24.018280 -0.000004 -0.000076 -38.200314 -1.163142 0.204731 9.981351 -0.000070 0.000015 -39.900864 -20.478381 -7.036009 7.115566 -0.000003 -15.261763 0.000016 2.340046 0.117503 -15.427423 -0.000001 -7.370728 0.000001 0.000000 -0.000000 -0.000000 -0.000034 -0.000001 0.000001 0.000000 0.000000 0.000001 -0.000022 0.000002 -0.000000 -0.000000 -0.000000 0.000003 11.315670 0.000021 -0.000023 -25.057410 -19.090293 -6.688076 -0.000035 0.000015 -38.200321 1.154241 -0.445520 21.102841 0.000008 -0.000010 -39.900871 4.023802 3.479757 14.094497 -0.000035 -15.261738 0.000005 -0.454352 -1.642021 -24.259570 -0.000027 -7.539914 0.000002 -0.000000 0.000001 -0.000000 -0.000039 -0.000116 0.000000 -0.000001 -0.000000 0.000000 -0.000038 -0.000000 -0.000003 0.000000 -0.000001 0.000000 
-8.830475 -12.191345 84.325203 37.241419 5.242049 -11.942991 0.000008 2.080076 8.814249 -0.702783 -4.534607 5.196869 -0.000005 0.000013 8.844141 0.217219 1.250408 2.297413 0.000006 -0.000014 11.682286 -4.067263 -0.356688 5.209061 -0.000002 -0.000058 11.746706 -1.249793 -0.561070 3.585956 0.000006 -0.000002 17.658291 -9.072758 -9.279105 8.146207 0.000013 0.000012 5.101528 -4.827671 1.484431 -2.400153 -0.000011 0.000020 5.101557 -1.428828 0.778995 -14.243072 -0.000011 0.000002 11.655074 -0.000001 -0.000000 0.000000 -2.625411 0.000013 11.175252 9.891156 -89.338956 -0.347272 -0.000023 -0.000006 10.434719 23.535983 -52.854227 -8.020374 0.000019 -0.000031 29.628414 15.734710 1.823435 111.121106 -0.000037 -0.000046 22.857605 5.651612 17.170662 21.077609 -2.867297 -2.944290 3.959564 32.727616 -27.177454 37.651452 -0.000015 -0.000031 3.350403 -34.514824 10.148806 -58.095485 -0.000008 0.000000 3.756531 -23.028152 10.922396 -39.716030 -0.000011 0.000002 3.147334 -0.000000 0.000001 0.000001 -0.086788 -2.345267 10.030937 -106.967702 -70.677500 107.273722 0.000000 0.000021 4.061119 -11.254162 -65.683750 18.121197 -0.000027 -0.000010 3.248856 -11.754166 -65.683723 18.121206 0.000012 -0.000003 2.639698 0.000000 -0.000002 -0.000000 0.104092 -0.006769 9.502970 -104.034409 -76.105451 108.341103 0.000015 0.000018 4.568708 -3.711781 -65.361297 6.561191 -0.000011 -0.000003 3.654974 -4.211800 -65.361290 6.561194 -0.000006 -0.000001 2.741261 -0.000000 -0.000001 -0.000001 0.086750 2.267443 8.921684 -147.611794 -79.776691 156.561282 -0.000010 0.000010 4.061100 4.975765 -68.233754 -8.811200 -0.000019 0.000000 3.655012 5.975790 -68.233747 -8.811208 -0.000003 -0.000003 2.741236 0.000000 -0.000001 0.000000 -0.173477 4.467213 7.976997 165.193371 -79.213822 -152.315923 0.000008 -0.000023 3.350426 14.572502 -65.655043 -25.442530 0.000031 0.000019 2.842728 16.572518 -65.655043 -25.442538 0.000044 0.000003 2.639731 -0.000000 -0.000000 0.000001 0.000005 -0.000007 -0.000010 -0.000000 0.000000 -0.000002 0.000009 0.000001 0.000006 -0.000001 0.000001 0.000002 2.625390 -0.000012 11.175203 -11.380147 87.856402 -0.260376 -0.000008 -0.000006 10.813656 5.990534 65.721658 15.171390 -0.000011 0.000015 28.724850 -17.610905 1.796024 113.865018 0.644409 0.328863 25.716125 1.968678 -44.794696 14.196380 2.867245 -2.944275 3.959557 -31.519824 18.507016 49.649489 -0.000004 0.000000 3.350395 15.431441 -9.409855 -27.445893 -0.000015 0.000023 3.756519 10.228791 -7.339066 -18.751926 -0.000013 0.000058 3.099993 0.000001 -0.000000 -0.000002 0.086765 -2.345274 10.030895 186.701431 -78.103684 -0.139403 -0.000019 -0.000029 4.061094 -179.499994 180.000019 -180.000032 0.000044 -0.000020 3.248869 -179.999991 179.999991 -180.000469 0.000014 -0.000003 2.639728 0.000001 0.000001 0.000000 -0.104076 -0.006817 9.502945 224.814515 -80.770293 -55.872074 -0.000012 0.000011 4.568724 0.499979 0.000249 -0.000005 0.000004 0.000025 3.654963 0.000005 0.000002 -0.000011 -0.000003 0.000016 2.741243 -0.000002 -0.000002 0.000000 -0.086746 2.267476 8.921715 130.998520 70.975542 135.753848 0.000004 -0.000029 4.061125 6.674813 71.639088 10.619177 -0.000019 -0.000020 3.654997 7.674896 71.639095 10.619248 -0.000003 -0.000010 2.741259 0.000002 0.000001 0.000002 0.173500 4.467175 7.976967 124.201826 62.652922 137.021040 0.000023 0.000008 3.350403 25.182382 72.020950 36.797344 0.000031 0.000011 2.842758 27.182457 72.020964 36.797405 0.000000 -0.000014 2.639720 0.000001 -0.000001 0.000000 -0.000002 -0.000006 0.000022 0.000000 0.000001 -0.000000 0.000032 -0.000020 -0.000004 0.000003 -0.000002 -0.000005 -11.289968 0.000008 -0.000026 -16.903987 0.795500 24.740704 -0.000039 -0.000030 -38.200321 -1.225715 0.221846 10.257608 -0.000055 0.000001 -39.900871 -21.209187 -8.005892 6.874164 0.000033 -15.261743 0.000038 2.393865 0.188946 -15.420928 0.000001 -7.370727 0.000001 -0.000000 0.000000 -0.000001 -0.000030 -0.000003 0.000003 0.000001 0.000000 0.000003 -0.000034 -0.000011 -0.000006 0.000002 -0.000000 0.000001 11.315624 -0.000017 -0.000008 -25.986768 -19.240472 -6.925605 -0.000006 -0.000007 -38.200329 1.547823 -0.624285 21.960457 -0.000017 0.000010 -39.900852 1.429596 5.382454 15.005999 -0.000039 -15.261716 0.000004 -0.981387 -1.474022 -24.184066 -0.000035 -7.539978 -0.000000 -0.000000 0.000001 0.000001 -0.000031 -0.000007 0.000001 0.000001 0.000000 0.000000 -0.000045 0.000059 0.000002 0.000000 0.000001 0.000000 
